<svg width="24" height="24" viewBox="0 0 24 24" fill="none" xmlns="http://www.w3.org/2000/svg">
<path opacity="0.398042" d="M12 0C5.37097 0 0 5.37097 0 12C0 18.629 5.37097 24 12 24C18.629 24 24 18.629 24 12C24 5.37097 18.629 0 12 0Z" fill="#FFD130"/>
<path d="M17.9857 12.8559L13.0711 17.7615C12.9258 17.9091 12.7258 17.9948 12.5151 17.9998C12.3045 18.0048 12.1004 17.9286 11.9478 17.7882C11.9384 17.7796 11.9291 17.7705 11.9202 17.7615L7.01002 12.8559C5.58362 11.4297 5.66805 9.06713 7.2633 7.75266C8.65415 6.60573 10.7249 6.81192 12.0002 8.08343L12.5023 8.58172L13.0044 8.08343C14.2798 6.81192 16.3505 6.60573 17.7413 7.75266C19.3321 9.06713 19.4166 11.4297 17.9857 12.8559Z" fill="#FFD130"/>
</svg>
