<svg width="24" height="24" viewBox="0 0 24 24" fill="none" xmlns="http://www.w3.org/2000/svg">
<path fill-rule="evenodd" clip-rule="evenodd" d="M2 18C0.666667 18 0.666667 16 2 16C3.10457 16 4 15.1046 4 14V9C4 4.58172 7.58172 1 12 1C16.4183 1 20 4.58172 20 9V14C20 15.1046 20.8954 16 22 16C23.3333 16 23.3333 18 22 18H2ZM18 14V9C18 5.68629 15.3137 3 12 3C8.68629 3 6 5.68629 6 9V14C6 14.7286 5.80521 15.4117 5.46487 16H18.5351C18.1948 15.4117 18 14.7286 18 14ZM12 22.9965C13.0696 22.9965 14.0583 22.427 14.595 21.5018C14.9817 20.8351 14.5007 20 13.73 20H10.27C9.49929 20 9.01828 20.8351 9.405 21.5018C9.9417 22.427 10.9304 22.9965 12 22.9965Z" fill="black"/>
<mask id="mask0" mask-type="alpha" maskUnits="userSpaceOnUse" x="1" y="1" width="22" height="22">
<path fill-rule="evenodd" clip-rule="evenodd" d="M2 18C0.666667 18 0.666667 16 2 16C3.10457 16 4 15.1046 4 14V9C4 4.58172 7.58172 1 12 1C16.4183 1 20 4.58172 20 9V14C20 15.1046 20.8954 16 22 16C23.3333 16 23.3333 18 22 18H2ZM18 14V9C18 5.68629 15.3137 3 12 3C8.68629 3 6 5.68629 6 9V14C6 14.7286 5.80521 15.4117 5.46487 16H18.5351C18.1948 15.4117 18 14.7286 18 14ZM12 22.9965C13.0696 22.9965 14.0583 22.427 14.595 21.5018C14.9817 20.8351 14.5007 20 13.73 20H10.27C9.49929 20 9.01828 20.8351 9.405 21.5018C9.9417 22.427 10.9304 22.9965 12 22.9965Z" fill="white"/>
</mask>
<g mask="url(#mask0)">
<rect width="24" height="24" fill="#FFD130"/>
</g>
</svg>
