<svg width="24" height="24" viewBox="0 0 24 24" fill="none" xmlns="http://www.w3.org/2000/svg">
<path fill-rule="evenodd" clip-rule="evenodd" d="M10 2H3C2.44772 2 2 2.44772 2 3V10C2 10.5523 2.44772 11 3 11H10C10.5523 11 11 10.5523 11 10V3C11 2.44772 10.5523 2 10 2ZM4 9V4H9V9H4ZM14 2H21C21.5523 2 22 2.44772 22 3V10C22 10.5523 21.5523 11 21 11H14C13.4477 11 13 10.5523 13 10V3C13 2.44772 13.4477 2 14 2ZM20 9H15V4H20V9ZM14 13H21C21.5523 13 22 13.4477 22 14V21C22 21.5523 21.5523 22 21 22H14C13.4477 22 13 21.5523 13 21V14C13 13.4477 13.4477 13 14 13ZM20 20H15V15H20V20ZM3 13H10C10.5523 13 11 13.4477 11 14V21C11 21.5523 10.5523 22 10 22H3C2.44772 22 2 21.5523 2 21V14C2 13.4477 2.44772 13 3 13ZM9 20H4V15H9V20Z" fill="black"/>
<mask id="mask0" mask-type="alpha" maskUnits="userSpaceOnUse" x="2" y="2" width="20" height="20">
<path fill-rule="evenodd" clip-rule="evenodd" d="M10 2H3C2.44772 2 2 2.44772 2 3V10C2 10.5523 2.44772 11 3 11H10C10.5523 11 11 10.5523 11 10V3C11 2.44772 10.5523 2 10 2ZM4 9V4H9V9H4ZM14 2H21C21.5523 2 22 2.44772 22 3V10C22 10.5523 21.5523 11 21 11H14C13.4477 11 13 10.5523 13 10V3C13 2.44772 13.4477 2 14 2ZM20 9H15V4H20V9ZM14 13H21C21.5523 13 22 13.4477 22 14V21C22 21.5523 21.5523 22 21 22H14C13.4477 22 13 21.5523 13 21V14C13 13.4477 13.4477 13 14 13ZM20 20H15V15H20V20ZM3 13H10C10.5523 13 11 13.4477 11 14V21C11 21.5523 10.5523 22 10 22H3C2.44772 22 2 21.5523 2 21V14C2 13.4477 2.44772 13 3 13ZM9 20H4V15H9V20Z" fill="white"/>
</mask>
<g mask="url(#mask0)">
<rect width="24" height="24" fill="#FFD130"/>
</g>
</svg>
