<svg width="24" height="24" viewBox="0 0 24 24" fill="none" xmlns="http://www.w3.org/2000/svg">
<path fill-rule="evenodd" clip-rule="evenodd" d="M17.4013 2C15.6769 2 14.0231 2.68524 12.804 3.90488L12.4513 4.25761L12.0984 3.90472C9.55949 1.36581 5.4431 1.36581 2.90418 3.90472C0.365272 6.44363 0.365272 10.56 2.90418 13.0989L11.7442 21.9389C12.1347 22.3295 12.7679 22.3295 13.1584 21.9389L21.9984 13.0989C23.2179 11.88 23.9031 10.2263 23.9031 8.50183C23.9031 6.77739 23.2179 5.12363 21.9986 3.90488C20.7795 2.68524 19.1257 2 17.4013 2ZM19.5242 12.7447L12.4513 19.8176L4.3184 11.6847C2.56053 9.92686 2.56053 7.0768 4.3184 5.31893C6.07626 3.56107 8.92632 3.56107 10.6842 5.31893L11.7442 6.37893C12.1347 6.76946 12.7679 6.76946 13.1584 6.37893L14.2184 5.31893C15.0625 4.4744 16.2075 4 17.4013 4C18.5951 4 19.74 4.4744 20.5844 5.3191C21.4287 6.16307 21.9031 7.30799 21.9031 8.50183C21.9031 9.69567 21.4287 10.8406 20.5844 11.6846L19.5242 12.7447Z" fill="black"/>
<mask id="mask0" mask-type="alpha" maskUnits="userSpaceOnUse" x="1" y="2" width="23" height="21">
<path fill-rule="evenodd" clip-rule="evenodd" d="M17.4013 2C15.6769 2 14.0231 2.68524 12.804 3.90488L12.4513 4.25761L12.0984 3.90472C9.55949 1.36581 5.4431 1.36581 2.90418 3.90472C0.365272 6.44363 0.365272 10.56 2.90418 13.0989L11.7442 21.9389C12.1347 22.3295 12.7679 22.3295 13.1584 21.9389L21.9984 13.0989C23.2179 11.88 23.9031 10.2263 23.9031 8.50183C23.9031 6.77739 23.2179 5.12363 21.9986 3.90488C20.7795 2.68524 19.1257 2 17.4013 2ZM19.5242 12.7447L12.4513 19.8176L4.3184 11.6847C2.56053 9.92686 2.56053 7.0768 4.3184 5.31893C6.07626 3.56107 8.92632 3.56107 10.6842 5.31893L11.7442 6.37893C12.1347 6.76946 12.7679 6.76946 13.1584 6.37893L14.2184 5.31893C15.0625 4.4744 16.2075 4 17.4013 4C18.5951 4 19.74 4.4744 20.5844 5.3191C21.4287 6.16307 21.9031 7.30799 21.9031 8.50183C21.9031 9.69567 21.4287 10.8406 20.5844 11.6846L19.5242 12.7447Z" fill="white"/>
</mask>
<g mask="url(#mask0)">
<rect width="24" height="24" fill="#FFD130"/>
</g>
</svg>
